<svg width="60" height="60" viewBox="0 0 60 60" fill="none" xmlns="http://www.w3.org/2000/svg">
<path d="M49.9713 -1.50893e-06H10.0288C4.50924 -1.50893e-06 0 4.50923 0 10.0287V49.9713C0 55.4908 4.50924 60 10.0288 60H49.9713C55.4908 60 60 55.4908 60 49.9713V10.0287C60 4.48459 55.5154 -1.50893e-06 49.9713 -1.50893e-06Z" fill="black"/>
<path d="M30.0123 14.5873C25.8973 14.5873 22.0287 16.1889 19.1211 19.0965C16.2135 22.0041 14.6119 25.8727 14.6119 29.9877C14.6119 34.1027 16.2135 37.9712 19.1211 40.8788C22.0287 43.7864 25.8973 45.3881 30.0123 45.3881C34.1273 45.3881 37.9959 43.7864 40.9035 40.8788C43.8111 37.9712 45.4127 34.1027 45.4127 29.9877C45.4127 25.8727 43.8111 22.0041 40.9035 19.0965C37.9713 16.1889 34.1273 14.5873 30.0123 14.5873ZM30.0123 42.1109C23.3347 42.1109 17.8891 36.6899 17.8891 29.9877C17.8891 23.3101 23.3101 17.8645 30.0123 17.8645C36.6899 17.8645 42.1355 23.2854 42.1355 29.9877C42.1109 36.6653 36.6899 42.1109 30.0123 42.1109Z" fill="white"/>
<path d="M48.4146 45.8942C50.0476 45.8942 51.3715 47.218 51.3715 48.8511C51.3715 50.4842 50.0476 51.8081 48.4146 51.8081C46.7815 51.8081 45.4576 50.4842 45.4576 48.8511C45.4576 47.218 46.7815 45.8942 48.4146 45.8942Z" fill="white"/>
</svg>
