<svg width="61" height="76" viewBox="0 0 61 76" fill="none" xmlns="http://www.w3.org/2000/svg">
<path d="M44.4741 2.8911L42.7988 0H32.6606V26.0388L32.6261 51.4729C32.6434 51.6619 32.6606 51.8697 32.6606 52.0587C32.6606 58.4267 27.9283 63.6231 22.0907 63.6231C16.253 63.6231 11.5207 58.4455 11.5207 52.0587C11.5207 45.6907 16.253 40.4943 22.0907 40.4943C23.2997 40.4943 24.4741 40.7399 25.5622 41.1556V28.4575C24.4396 28.2496 23.2824 28.1362 22.0907 28.1362C10.0527 28.1551 0.242676 38.8881 0.242676 52.0776C0.242676 65.267 10.0527 76 22.108 76C34.1632 76 43.9732 65.267 43.9732 52.0776V21.825C48.3429 26.6057 53.9905 31.273 60.2427 32.7658V19.7842C53.4551 16.4963 46.7021 6.78369 44.4741 2.8911Z" fill="black"/>
</svg>
